<svg width="207" height="49" viewBox="0 0 207 49" fill="none" xmlns="http://www.w3.org/2000/svg">
<g id="Group 1">
<rect id="Rectangle 1" x="12.5303" y="20.5441" width="28.4697" height="9.71173" rx="4.85587" fill="#00CA72"/>
<rect id="Rectangle 3" x="-9.53674e-07" y="32.0883" width="41" height="9.71173" rx="4.85587" fill="#FB275D"/>
<rect id="Rectangle 2" x="6.72584" y="9" width="34.2742" height="9.71173" rx="4.85587" fill="#FFCC00"/>
<path id="sunday" d="M56.55 39.6C54.95 39.6 53.2833 39.2833 51.55 38.65C49.85 38.0167 48.3667 37.1833 47.1 36.15L50.2 31.85C51.3667 32.75 52.4667 33.4167 53.5 33.85C54.5667 34.2833 55.65 34.5 56.75 34.5C57.8833 34.5 58.7333 34.3 59.3 33.9C59.8667 33.4667 60.15 32.8667 60.15 32.1C60.15 31.5667 59.9167 31.1 59.45 30.7C59.0167 30.3 58.3833 29.9333 57.55 29.6C56.7167 29.2333 55.8833 28.8833 55.05 28.55C53.0833 27.7833 51.4667 26.85 50.2 25.75C48.9667 24.6167 48.35 23.1333 48.35 21.3C48.35 19.0333 49.2 17.2 50.9 15.8C52.6 14.3667 54.85 13.65 57.65 13.65C60.7167 13.65 63.5667 14.6833 66.2 16.75L63.15 20.85C61.1833 19.45 59.4167 18.75 57.85 18.75C56.8167 18.75 56.0333 18.95 55.5 19.35C55 19.75 54.75 20.2833 54.75 20.95C54.75 21.6167 55.0833 22.1667 55.75 22.6C56.4167 23 57.1833 23.35 58.05 23.65C58.9167 23.95 59.4833 24.15 59.75 24.25C61.85 25.0167 63.5 25.95 64.7 27.05C65.9333 28.1167 66.55 29.6667 66.55 31.7C66.55 33.2 66.15 34.55 65.35 35.75C64.5833 36.9167 63.45 37.85 61.95 38.55C60.45 39.25 58.65 39.6 56.55 39.6ZM78.7727 39.6C76.1727 39.6 74.2393 38.75 72.9727 37.05C71.7393 35.3167 71.1227 32.85 71.1227 29.65V14.25H77.9227V28.8C77.9227 30.6 78.1893 31.8833 78.7227 32.65C79.256 33.3833 80.106 33.75 81.2727 33.75C82.2393 33.75 83.056 33.5333 83.7227 33.1C84.4227 32.6333 85.1893 31.8667 86.0227 30.8V14.25H92.8227V39H87.2727L86.7727 35.5H86.5727C85.4393 36.8333 84.256 37.85 83.0227 38.55C81.7893 39.25 80.3727 39.6 78.7727 39.6ZM99.6441 14.25H105.194L105.694 17.45H105.894C107.094 16.2833 108.327 15.3667 109.594 14.7C110.894 14 112.327 13.65 113.894 13.65C116.494 13.65 118.411 14.5167 119.644 16.25C120.911 17.95 121.544 20.4 121.544 23.6V39H114.694V24.45C114.694 22.6167 114.427 21.3333 113.894 20.6C113.394 19.8667 112.561 19.5 111.394 19.5C110.461 19.5 109.644 19.7 108.944 20.1C108.244 20.5 107.411 21.1667 106.444 22.1V39H99.6441V14.25ZM136.812 39.6C133.712 39.6 131.245 38.45 129.412 36.15C127.612 33.85 126.712 30.6833 126.712 26.65C126.712 24.05 127.195 21.7667 128.162 19.8C129.129 17.8333 130.395 16.3167 131.962 15.25C133.562 14.1833 135.245 13.65 137.012 13.65C138.312 13.65 139.429 13.8667 140.362 14.3C141.295 14.7333 142.245 15.4 143.212 16.3L142.962 12.45V3.85H149.812V39H144.212L143.712 36.45H143.562C142.629 37.3833 141.562 38.15 140.362 38.75C139.195 39.3167 138.012 39.6 136.812 39.6ZM138.562 34C139.429 34 140.212 33.8167 140.912 33.45C141.612 33.05 142.295 32.4333 142.962 31.6V21C141.695 19.8333 140.229 19.25 138.562 19.25C137.195 19.25 136.045 19.8833 135.112 21.15C134.179 22.4167 133.712 24.2167 133.712 26.55C133.712 29.0167 134.129 30.8833 134.962 32.15C135.795 33.3833 136.995 34 138.562 34ZM162.728 39.6C160.528 39.6 158.744 38.9 157.378 37.5C156.044 36.1 155.378 34.3333 155.378 32.2C155.378 29.5667 156.494 27.5333 158.728 26.1C160.961 24.6333 164.544 23.6333 169.478 23.1C169.378 20.4333 168.011 19.1 165.378 19.1C164.344 19.1 163.294 19.3 162.228 19.7C161.161 20.1 159.994 20.6667 158.728 21.4L156.278 16.9C159.778 14.7333 163.244 13.65 166.678 13.65C169.844 13.65 172.244 14.5833 173.878 16.45C175.511 18.2833 176.328 21.0333 176.328 24.7V39H170.728L170.228 36.4H170.078C167.611 38.5333 165.161 39.6 162.728 39.6ZM164.978 34.3C165.811 34.3 166.561 34.1167 167.228 33.75C167.928 33.35 168.678 32.7667 169.478 32V27.25C166.778 27.6167 164.844 28.1667 163.678 28.9C162.511 29.6333 161.928 30.55 161.928 31.65C161.928 32.5167 162.194 33.1833 162.728 33.65C163.261 34.0833 164.011 34.3 164.978 34.3ZM185.198 48.85C183.998 48.85 182.848 48.6833 181.748 48.35L182.998 43.1C183.698 43.3333 184.265 43.45 184.698 43.45C186.898 43.45 188.398 42.25 189.198 39.85L189.598 38.45L179.998 14.25H186.898L190.648 25.4C191.048 26.5667 191.515 28.1167 192.048 30.05C192.282 30.95 192.498 31.7333 192.698 32.4H192.898C193.332 30.5 193.915 28.1667 194.648 25.4L197.898 14.25H204.448L195.748 39.55C194.548 42.75 193.165 45.1 191.598 46.6C190.032 48.1 187.898 48.85 185.198 48.85Z" fill="#333333"/>
</g>
</svg>
